<?xml version="1.0" encoding="utf-8"?>
<!-- Generator: Adobe Illustrator 23.0.1, SVG Export Plug-In . SVG Version: 6.00 Build 0)  -->
<svg version="1.1" xmlns="http://www.w3.org/2000/svg" xmlns:xlink="http://www.w3.org/1999/xlink" x="0px" y="0px"
	 viewBox="0 0 3710 3710" style="enable-background:new 0 0 3710 3710;" xml:space="preserve">
<style type="text/css">
	.st0{fill:#F4F7FA;}
	.st1{opacity:0.8;clip-path:url(#SVGID_2_);}
	.st2{fill:#FFFFFF;}
	.st3{opacity:0.8;clip-path:url(#SVGID_5_);}
	.st4{fill:#26264F;}
	.st5{fill:url(#SVGID_6_);}
	.st6{fill:url(#SVGID_7_);}
	.st7{opacity:0.3;fill:url(#SVGID_8_);}
	.st8{fill:#DE8BDF;}
	.st9{fill:url(#SVGID_9_);}
	.st10{fill:url(#SVGID_10_);}
	.st11{fill:#D8DEE8;}
	.st12{fill:url(#SVGID_11_);}
	.st13{fill:url(#SVGID_12_);}
	.st14{fill:url(#SVGID_13_);}
	.st15{opacity:0.8;}
	.st16{opacity:0.35;}
	.st17{fill:url(#SVGID_14_);}
	.st18{fill:url(#SVGID_15_);}
	.st19{opacity:0.3;}
	.st20{fill:url(#SVGID_16_);}
	.st21{fill:url(#SVGID_17_);}
	.st22{fill:url(#SVGID_18_);}
	.st23{fill:url(#SVGID_19_);}
	.st24{fill:url(#SVGID_20_);}
	.st25{fill:url(#SVGID_21_);}
	.st26{fill:url(#SVGID_22_);}
	.st27{fill:url(#SVGID_23_);}
	.st28{fill:url(#SVGID_24_);}
	.st29{fill:url(#SVGID_25_);}
	.st30{fill:url(#SVGID_26_);}
	.st31{fill:url(#SVGID_27_);}
	.st32{fill:url(#SVGID_28_);}
	.st33{opacity:0.3;fill:url(#SVGID_29_);}
	.st34{fill:url(#SVGID_30_);}
	.st35{fill:url(#SVGID_31_);}
	.st36{fill:url(#SVGID_32_);}
	.st37{fill:url(#SVGID_33_);}
	.st38{fill:url(#SVGID_34_);}
	.st39{fill:url(#SVGID_35_);}
	.st40{fill:url(#SVGID_36_);}
	.st41{fill:url(#SVGID_37_);}
	.st42{opacity:0.6;fill:url(#SVGID_38_);}
	.st43{fill:url(#SVGID_39_);}
	.st44{fill:url(#SVGID_40_);}
	.st45{fill:url(#SVGID_41_);}
	.st46{fill:url(#SVGID_42_);}
	.st47{fill:url(#SVGID_43_);}
	.st48{fill:url(#SVGID_44_);}
	.st49{fill:url(#SVGID_45_);}
	.st50{fill:url(#SVGID_46_);}
	.st51{fill:url(#SVGID_47_);}
	.st52{fill:url(#SVGID_48_);}
	.st53{fill:url(#SVGID_49_);}
	.st54{fill:url(#SVGID_50_);}
	.st55{opacity:0.3;fill:url(#SVGID_51_);}
	.st56{fill:url(#SVGID_52_);}
	.st57{fill:url(#SVGID_53_);}
	.st58{fill:url(#SVGID_54_);}
	.st59{fill:url(#SVGID_55_);}
	.st60{fill:#6956B2;}
</style>
<g id="Background">
</g>
<g id="Illustration">
	<g>
		<g>
			<path class="st0" d="M1883.4,36.5C1126.5,13.7,470.9,575.1,371.9,1311.8C263.6,2117.3,855.6,2873.2,1593,2958.2
				c1632.5,188,1797-690.9,1717.6-1597.1C3250.7,678.4,2652.7,59.7,1883.4,36.5z"/>
			<g>
				<g>
					<g>
						<defs>
							<path id="SVGID_1_" d="M3120.3,766c-26.8-45.2-78.4-83.2-126-104.2c-337.6-149.1-648.4,556.7-653.5,737.6
								s-58.6,221.7-361.8,208.2c-303.2-13.4-231,196.6-232,303.9c-1,107.3,35.9,211.5-197.1,234.7
								c-232.9,23.2-184.9,106.7-184.9,106.7s231.9,507,254.8,379.6s124.8-295.5,458.6-191.1c143.8,45,384.9,55.4,487.5-79
								c23.9-31.3,51.1-82.4,55.7-122c6.4-54.9-12.5-106.9-13.8-161.2c-3.1-126.7,134.2-169.3,223.1-221.3
								c46.4-27.1,93.1-55.3,133.9-90.6c84.6-73.3,100.7-178.8,75-283.6c-12.3-50.3-34.3-106.8-28.6-159.5
								c6.1-56.6,42.6-123.7,64.9-176.1c17.4-41.1,36.5-81.5,49.2-124.4C3149,943.9,3165,841.7,3120.3,766z"/>
						</defs>
						<use xlink:href="#SVGID_1_"  style="overflow:visible;fill:#D8DEE8;"/>
						<clipPath id="SVGID_2_">
							<use xlink:href="#SVGID_1_"  style="overflow:visible;"/>
						</clipPath>
						<g class="st1">
							<g>
								<path class="st2" d="M1260.4,2453.2c-2.7,0-5-2-5.4-4.7c-0.4-3,1.7-5.7,4.7-6.1c1.8-0.3,185.4-25.9,405.8-97.8
									c203-66.2,479.7-186.2,644.6-382c137.8-163.5,313.7-452.5,482.7-792.9c151.5-305.2,242.1-538.6,242.1-588
									c0-3,2.4-5.4,5.4-5.4s5.4,2.4,5.4,5.4c0,57.8-106.8,318.2-243.2,592.9c-169.3,341.1-345.8,630.9-484.1,795
									c-166.6,197.8-445.3,318.8-649.7,385.4c-221.2,72.1-405.6,97.9-407.5,98.1C1260.9,2453.1,1260.6,2453.2,1260.4,2453.2z"/>
							</g>
							<g>
								<path class="st2" d="M2769.9,1231.2c-3,0-5.4-1.7-5.4-4.7c0-4-4.2-397.8-142.5-536.1c-2.1-2.1-2.1-5.4,0-7.5
									c2.1-2.1,5.6-2,7.7,0.1c141.5,141.5,145.6,527,145.7,543.4C2775.3,1229.4,2772.9,1231.2,2769.9,1231.2
									C2769.9,1231.2,2769.9,1231.2,2769.9,1231.2z"/>
							</g>
							<g>
								<path class="st2" d="M2562,1611.5c-2.2,0-4.3-1.4-5.1-3.6c-1-2.8,0.5-5.9,3.3-7c1.2-0.4,124.3-44.2,265.2-67.5
									c190.3-31.4,320.6-12.4,387.4,56.5c2.1,2.2,2,5.6-0.1,7.7c-2.2,2.1-5.6,2-7.7-0.1c-153.6-158.5-636.2,12-641.1,13.7
									C2563.3,1611.4,2562.7,1611.5,2562,1611.5z"/>
							</g>
							<g>
								<path class="st2" d="M1852,2286.1c-0.6,0-1.2-0.1-1.8-0.3c-2.8-1-4.4-4.1-3.4-6.9c0.5-1.5,51.5-151.5,76.7-319.8
									c23.2-154.3,29-355.9-75-440.2c-2.3-1.9-2.7-5.3-0.8-7.7c1.9-2.3,5.3-2.7,7.7-0.8c86.7,70.3,113.3,221.9,78.9,450.4
									c-25.4,169.2-76.7,320-77.2,321.5C1856.4,2284.7,1854.3,2286.1,1852,2286.1z"/>
							</g>
							<g>
								<path class="st2" d="M2150.3,2121.4c-2.3,0-4.5-1.5-5.2-3.9c-0.9-2.9,0.8-5.9,3.6-6.8c20.9-6.3,512.8-152.4,654.7-70.5
									c2.6,1.5,3.5,4.8,2,7.4c-1.5,2.6-4.8,3.5-7.4,2c-137.9-79.6-641.1,70-646.1,71.5C2151.3,2121.3,2150.8,2121.4,2150.3,2121.4
									z"/>
							</g>
						</g>
					</g>
				</g>
				<g>
					<g>
						<defs>
							<path id="SVGID_3_" d="M2517.8,120.1c-43.1-30.1-105.8-43.2-157.9-42.7c-369,4.1-359.5,775.4-289.2,942.1
								c70.3,166.8,38.5,226-243.1,339.4s-128.8,274.6-85.3,372.7c43.5,98.1,120.2,177.6-82.1,295.2
								c-202.4,117.6-124.1,173.8-124.1,173.8s421.1,365.4,389.2,240c-31.9-125.4-8.8-320.7,338.2-363.9
								c149.5-18.6,373.3-109,411-273.8c8.8-38.4,12.3-96.2,0.1-134.1c-16.9-52.7-55.6-92.1-79.4-141
								c-55.3-114,52-209.7,111.4-293.8c31-43.9,61.9-88.9,84.3-137.9c46.6-101.8,17.6-204.4-49.2-289.2
								c-32.1-40.7-75.5-83-92.1-133.3c-17.9-54-12.4-130.2-13.9-187.2c-1.2-44.7-0.6-89.3-6.7-133.7
								C2617.6,270.1,2589.9,170.4,2517.8,120.1z"/>
						</defs>
						<linearGradient id="SVGID_4_" gradientUnits="userSpaceOnUse" x1="2282.6191" y1="-90.5482" x2="1956.0358" y2="4663.0249">
							<stop  offset="0" style="stop-color:#FFC444"/>
							<stop  offset="0.9964" style="stop-color:#F36F56"/>
						</linearGradient>
						<use xlink:href="#SVGID_3_"  style="overflow:visible;fill:url(#SVGID_4_);"/>
						<clipPath id="SVGID_5_">
							<use xlink:href="#SVGID_3_"  style="overflow:visible;"/>
						</clipPath>
						<g class="st3">
							<g>
								<path class="st2" d="M1523.9,2426.2c-2.4,1.1-5.4,0.3-6.8-2c-1.6-2.5-0.8-5.9,1.7-7.5c1.6-1,158-100.4,328.8-257.1
									c157.4-144.3,359.4-368.2,428.4-614.7c57.6-205.9,98-541.8,110.8-921.6c11.5-340.5-2.8-590.5-23.3-635.5
									c-1.2-2.7,0-6,2.7-7.2c2.7-1.2,6,0,7.2,2.7c23.9,52.6,34.6,333.8,24.3,640.3c-12.8,380.6-53.4,717.4-111.2,924.2
									c-69.7,249.1-273.2,474.6-431.7,619.9c-171.5,157.3-328.6,257.1-330.2,258.1C1524.4,2426,1524.2,2426.1,1523.9,2426.2z"/>
							</g>
							<g>
								<path class="st2" d="M2391.6,688.7c-2.7,1.2-5.6,0.7-6.9-2c-1.7-3.6-168.6-360.3-351.8-428.9c-2.8-1.1-4.2-4-3.1-6.8
									c1.1-2.8,4.2-4.2,7-3.1c187.4,70.1,350.9,419.4,357.8,434.2C2395.8,684.8,2394.4,687.4,2391.6,688.7
									C2391.6,688.7,2391.6,688.7,2391.6,688.7z"/>
							</g>
							<g>
								<path class="st2" d="M2360,1120.9c-2,0.9-4.5,0.5-6.2-1.2c-2.1-2.2-2-5.6,0.1-7.7c0.9-0.9,94.8-91.8,213.4-171.3
									c160.2-107.4,286.7-144.1,376-109.1c2.8,1.1,4.2,4.3,3.1,7.1c-1.1,2.8-4.3,4.2-7.1,3.1c-205.5-80.6-574.1,274.5-577.8,278.1
									C2361,1120.3,2360.5,1120.6,2360,1120.9z"/>
							</g>
							<g>
								<path class="st2" d="M1993.2,2029c-0.5,0.2-1.1,0.4-1.7,0.5c-3,0.3-5.7-1.9-5.9-4.9c-0.2-1.6-15.9-159.2-62.6-322.8
									c-42.8-150-121.1-335.9-250.7-369.6c-2.9-0.8-4.7-3.7-3.9-6.6c0.8-2.9,3.7-4.7,6.6-3.9c108.1,28.1,195,155,258.4,377.3
									c47,164.6,62.8,323,62.9,324.6C1996.6,2025.9,1995.3,2028.1,1993.2,2029z"/>
							</g>
							<g>
								<path class="st2" d="M2196.4,1755.6c-2.1,1-4.7,0.5-6.4-1.4c-2-2.3-1.8-5.7,0.5-7.7c16.4-14.3,403.6-351.1,566.7-335.4
									c3,0.3,5.2,2.9,4.9,5.9c-0.3,3-2.9,5.2-5.9,4.9c-158.5-15.3-554.5,329.3-558.4,332.8
									C2197.4,1755.1,2196.9,1755.4,2196.4,1755.6z"/>
							</g>
						</g>
					</g>
				</g>
			</g>
			<g>
				<g>
					<g>
						<path class="st4" d="M2202.5,357.3c93.5,789.9,186.9,1571.6,280.4,2345c4.2,34.7-19.8,65.3-53.3,68.2
							c-375.6,35.6-751.2,72-1126.9,109.2c-67,3.3-103.8-34.2-108.1-71.7c-96.2-834.9-192.4-1678.6-288.6-2531
							c-4.3-38.3,28.1-71.2,95.1-67.9c377.5,26.9,754.9,53.5,1132.4,79.7C2167.3,291.1,2198.3,321.8,2202.5,357.3z"/>
						
							<linearGradient id="SVGID_6_" gradientUnits="userSpaceOnUse" x1="5529.0576" y1="1545.0511" x2="7912.5713" y2="1453.9308" gradientTransform="matrix(1 0 0.1172 1.0028 -4575.0493 -3.761)">
							<stop  offset="0" style="stop-color:#444B8C"/>
							<stop  offset="0.9964" style="stop-color:#26264F"/>
						</linearGradient>
						<path class="st5" d="M2254.7,355.7c94.1,793.4,188.1,1578.4,282.1,2355c4.2,34.8-19.9,65.6-53.6,68.5
							c-390,33-780.1,66.7-1170.1,101.1c-35.6,3.2-68.3-25-72.6-62.7c-96.8-838.7-193.6-1686.3-290.4-2542.8
							c-4.3-38.4,21.5-68,57.3-65.5c392.7,26.2,785.3,52.1,1178,77.6C2219.3,289.2,2250.5,320.1,2254.7,355.7z"/>
						
							<linearGradient id="SVGID_7_" gradientUnits="userSpaceOnUse" x1="6538.9121" y1="635.8264" x2="4245.6045" y2="5392.5728" gradientTransform="matrix(1 0 0 1 -4351.145 0)">
							<stop  offset="3.597120e-03" style="stop-color:#E38DDD"/>
							<stop  offset="1" style="stop-color:#9571F6"/>
						</linearGradient>
						<path class="st6" d="M2232,485.5c87.1,735,174.2,1462.9,261.3,2183.6c3.9,32.6-18.6,61.3-50.1,63.9
							c-366.8,30-733.6,60.6-1100.4,91.7c-33.1,2.8-63.6-23.5-67.7-58.5c-89.5-774.7-179-1557-268.5-2346.8
							c-4-35.7,20-63.4,53.3-61.4c369.1,21.5,738.2,42.8,1107.3,63.8C2199,423.5,2228.1,452.3,2232,485.5z"/>
						
							<linearGradient id="SVGID_8_" gradientUnits="userSpaceOnUse" x1="6547.1655" y1="639.8048" x2="4253.8594" y2="5396.5474" gradientTransform="matrix(1 0 0 1 -4351.145 0)">
							<stop  offset="3.597120e-03" style="stop-color:#E38DDD"/>
							<stop  offset="1" style="stop-color:#9571F6"/>
						</linearGradient>
						<path class="st7" d="M2167.3,421.7c-364.7-20.8-729.4-41.8-1094.2-63c11.3,64.8,30.9,135.4,64.1,207.3
							c121,262.5,298.7,276.9,368.2,505.6c71.6,235.6-89.9,309.4-11,522.1c85.6,230.9,295.7,197.4,406.7,450.7
							c95.7,218.3-27.5,318,71.4,450.7c108.5,145.4,309.1,96.1,517.3,145.3c-86-711.4-171.9-1429.7-257.9-2155
							C2228.1,452.3,2199,423.5,2167.3,421.7z"/>
					</g>
					<path class="st8" d="M1634.5,324.8c1.5,12.8-7.1,22.6-19.2,21.9c-12.1-0.7-23.1-11.7-24.6-24.6c-1.5-12.8,7.1-22.6,19.2-21.9
						C1622.1,301,1633.1,312,1634.5,324.8z"/>
					
						<linearGradient id="SVGID_9_" gradientUnits="userSpaceOnUse" x1="6033.0391" y1="935.5819" x2="6201.8706" y2="935.5819" gradientTransform="matrix(1 0 0 1 -4351.145 0)">
						<stop  offset="0" style="stop-color:#FF9085"/>
						<stop  offset="1" style="stop-color:#FB6FBB"/>
					</linearGradient>
					<ellipse class="st9" cx="1766.3" cy="935.6" rx="84.4" ry="99.6"/>
					
						<linearGradient id="SVGID_10_" gradientUnits="userSpaceOnUse" x1="6369.0684" y1="935.5819" x2="6537.8999" y2="935.5819" gradientTransform="matrix(1 0 0 1 -4351.145 0)">
						<stop  offset="0" style="stop-color:#FF9085"/>
						<stop  offset="1" style="stop-color:#FB6FBB"/>
					</linearGradient>
					<ellipse class="st10" cx="2102.3" cy="935.6" rx="84.4" ry="99.6"/>
					<ellipse class="st11" cx="1933.4" cy="935.6" rx="85.6" ry="99.6"/>
					
						<linearGradient id="SVGID_11_" gradientUnits="userSpaceOnUse" x1="6705.0972" y1="935.5819" x2="6873.9287" y2="935.5819" gradientTransform="matrix(1 0 0 1 -4351.145 0)">
						<stop  offset="0" style="stop-color:#FF9085"/>
						<stop  offset="1" style="stop-color:#FB6FBB"/>
					</linearGradient>
					<ellipse class="st12" cx="2438.4" cy="935.6" rx="84.4" ry="99.6"/>
					<ellipse class="st11" cx="2269.4" cy="935.6" rx="85.6" ry="99.6"/>
					<ellipse class="st11" cx="2605.5" cy="935.6" rx="85.6" ry="99.6"/>
					<ellipse class="st11" cx="1597.4" cy="935.6" rx="85.6" ry="99.6"/>
					
						<linearGradient id="SVGID_12_" gradientUnits="userSpaceOnUse" x1="5340.8853" y1="648.5734" x2="7216.75" y2="648.5734" gradientTransform="matrix(1 0 0 1 -4351.145 0)">
						<stop  offset="0" style="stop-color:#FF9085"/>
						<stop  offset="1" style="stop-color:#FB6FBB"/>
					</linearGradient>
					<polygon class="st13" points="989.7,348.1 1513.6,949.1 2865.6,949.1 2210.5,424.2 					"/>
					<g>
						<polygon class="st0" points="989.7,348.1 1513.6,949.1 1683,949.1 1130.7,356.9 						"/>
						<polygon class="st0" points="1281.9,366.3 1849.9,949.1 2017.3,949.1 1434.4,375.8 						"/>
						<polygon class="st0" points="1587.9,385.4 2185,949.1 2353.2,949.1 1742.6,395 						"/>
						<polygon class="st0" points="2055.6,414.5 1898.5,404.7 2521.7,949.1 2690.7,949.1 						"/>
					</g>
					
						<linearGradient id="SVGID_13_" gradientUnits="userSpaceOnUse" x1="7041.9897" y1="992.121" x2="7209.0942" y2="992.121" gradientTransform="matrix(1 0 0 1 -4351.145 0)">
						<stop  offset="0" style="stop-color:#FF9085"/>
						<stop  offset="1" style="stop-color:#FB6FBB"/>
					</linearGradient>
					<path class="st14" d="M2690.8,949.1c5.6,48.6,40.8,86.1,83.6,86.1s78-37.5,83.6-86.1H2690.8z"/>
				</g>
				<g class="st15">
					<g class="st16">
						
							<linearGradient id="SVGID_14_" gradientUnits="userSpaceOnUse" x1="5683.7275" y1="2048.0632" x2="6607.6147" y2="2048.0632" gradientTransform="matrix(1 0 0 1 -4351.145 0)">
							<stop  offset="0" style="stop-color:#FFC444"/>
							<stop  offset="0.9964" style="stop-color:#F36F56"/>
						</linearGradient>
						<path class="st17" d="M2256.3,2114.7c1.9,22.6-14.5,41.6-36.8,42.5l-814.2,33.4c-23.9,1-45.9-17.2-49-40.6l-23.3-175.2
							c-3.2-24,14-44,38.3-44.7l826.6-24.5c22.5-0.7,42.4,17.5,44.3,40.6L2256.3,2114.7z"/>
						
							<linearGradient id="SVGID_15_" gradientUnits="userSpaceOnUse" x1="5730.0049" y1="2310.261" x2="6622.9492" y2="2310.261" gradientTransform="matrix(1 0 0 1 -4351.145 0)">
							<stop  offset="0" style="stop-color:#FFC444"/>
							<stop  offset="0.9964" style="stop-color:#F36F56"/>
						</linearGradient>
						<path class="st18" d="M2271.7,2297c1.9,22.1-14.4,40.9-36.4,42l-805.3,39.7c-23.7,1.2-45.4-16.5-48.4-39.4l-2.3-17.4
							c-3.1-23.1,13.8-42.7,37.6-43.7l810.1-36.3c22.1-1,41.5,16.3,43.4,38.5L2271.7,2297z"/>
					</g>
					<g class="st19">
						
							<linearGradient id="SVGID_16_" gradientUnits="userSpaceOnUse" x1="5708.9707" y1="1418.6953" x2="6465.2188" y2="1418.6953" gradientTransform="matrix(1 0 0 1 -4351.145 0)">
							<stop  offset="0" style="stop-color:#FFC444"/>
							<stop  offset="0.9964" style="stop-color:#F36F56"/>
						</linearGradient>
						<path class="st20" d="M2096.8,1456.9l-708.6,5.6c-11.9,0.1-22.8-8.8-24.2-19.9l-6.1-47.4c-1.4-11.2,7.1-20.2,19.1-20.2
							l712.3,0c10.5,0,19.7,8.4,20.6,18.9l3.9,44.2C2114.9,1448.3,2107.2,1456.8,2096.8,1456.9z"/>
						
							<linearGradient id="SVGID_17_" gradientUnits="userSpaceOnUse" x1="5769.9189" y1="1602.8279" x2="6424.5342" y2="1602.8279" gradientTransform="matrix(1 0 0 1 -4351.145 0)">
							<stop  offset="0" style="stop-color:#FFC444"/>
							<stop  offset="0.9964" style="stop-color:#F36F56"/>
						</linearGradient>
						<path class="st21" d="M1418.8,1479.9l90.5,228.7c5.6,14.2,20.7,23.8,36.6,23.3l463.7-15.2c14.5-0.5,26.2-10.5,28.5-24.3
							l35.3-218.8L1418.8,1479.9z M1622.1,1693.1c1,9-5.9,16.4-15.4,16.7l-16.6,0.5c-9.6,0.3-18.3-6.7-19.4-15.7l-21.1-177.1
							c-1.1-9.2,5.9-16.7,15.7-16.8l16.8-0.2c9.7-0.1,18.4,7.2,19.5,16.3L1622.1,1693.1z M1713.7,1690.4c1,8.9-5.8,16.3-15.2,16.6
							l-16.3,0.5c-9.5,0.3-18-6.7-19-15.6l-20-175.6c-1-9.1,5.9-16.6,15.5-16.7l16.5-0.2c9.5-0.1,18.1,7.1,19.1,16.2L1713.7,1690.4z
							 M1803.7,1687.7c0.9,8.8-5.8,16.2-15,16.5l-16,0.5c-9.3,0.3-17.6-6.6-18.6-15.5l-19-174.1c-1-9,5.9-16.4,15.3-16.5l16.2-0.2
							c9.4-0.1,17.7,7.1,18.7,16.1L1803.7,1687.7z M1892.2,1685.1c0.9,8.7-5.8,16-14.9,16.3l-15.7,0.5c-9.1,0.3-17.3-6.6-18.2-15.4
							l-18-172.6c-0.9-8.9,5.8-16.3,15.1-16.4l15.9-0.2c9.2-0.1,17.4,7,18.3,15.9L1892.2,1685.1z M1979.3,1682.6
							c0.8,8.7-5.7,15.9-14.7,16.2l-15.5,0.5c-9,0.3-17-6.5-17.9-15.3l-17.1-171.2c-0.9-8.9,5.8-16.2,14.9-16.3l15.7-0.2
							c9.1-0.1,17.1,7,18,15.8L1979.3,1682.6z"/>
						<g>
							<g>
								
									<linearGradient id="SVGID_18_" gradientUnits="userSpaceOnUse" x1="5789.1821" y1="1332.0342" x2="5842.9448" y2="1332.0342" gradientTransform="matrix(1 0 0 1 -4351.145 0)">
									<stop  offset="0" style="stop-color:#FFC444"/>
									<stop  offset="0.9964" style="stop-color:#F36F56"/>
								</linearGradient>
								<path class="st22" d="M1484.8,1351c-10,9.1-27,8-37.9-2.5c-11-10.5-11.8-26.4-1.8-35.5c10-9.1,27.1-7.9,38,2.6
									C1494,1326.2,1494.8,1342,1484.8,1351z"/>
								
									<linearGradient id="SVGID_19_" gradientUnits="userSpaceOnUse" x1="5813.4053" y1="1229.0861" x2="6045.5562" y2="1229.0861" gradientTransform="matrix(1 0 0 1 -4351.145 0)">
									<stop  offset="0" style="stop-color:#FFC444"/>
									<stop  offset="0.9964" style="stop-color:#F36F56"/>
								</linearGradient>
								<path class="st23" d="M1691.8,1126.2c-4.1-4.1-11.5-3.7-16.6,0.9l-208.4,189c-5.2,4.7-6,11.9-1.8,16
									c4.2,4.1,11.9,3.5,17.1-1.2l207.8-188.8C1695.1,1137.5,1695.9,1130.4,1691.8,1126.2z"/>
							</g>
							<g>
								
									<linearGradient id="SVGID_20_" gradientUnits="userSpaceOnUse" x1="6329.5688" y1="1334.1489" x2="6378.0913" y2="1334.1489" gradientTransform="matrix(1 0 0 1 -4351.145 0)">
									<stop  offset="0" style="stop-color:#FFC444"/>
									<stop  offset="0.9964" style="stop-color:#F36F56"/>
								</linearGradient>
								<path class="st24" d="M1988.6,1352.2c10.9,8.7,26,7.7,33.8-2.2c7.8-9.9,5.4-25-5.5-33.7c-10.9-8.7-26.1-7.8-33.9,2.1
									C1975.1,1328.3,1977.6,1343.4,1988.6,1352.2z"/>
								
									<linearGradient id="SVGID_21_" gradientUnits="userSpaceOnUse" x1="6094.5176" y1="1230.826" x2="6355.2627" y2="1230.826" gradientTransform="matrix(1 0 0 1 -4351.145 0)">
									<stop  offset="0" style="stop-color:#FFC444"/>
									<stop  offset="0.9964" style="stop-color:#F36F56"/>
								</linearGradient>
								<path class="st25" d="M1744.8,1127.5c3.2-3.9,10.6-3.2,16.7,1.7l236.5,189.8c5.7,4.6,7.8,11.4,4.8,15.2
									c-3,3.8-10.1,3.3-15.8-1.3L1750,1143.4C1744,1138.5,1741.6,1131.4,1744.8,1127.5z"/>
							</g>
						</g>
					</g>
					<g>
						<path class="st2" d="M2270.2,2100.9c1.9,22.6-14.5,41.6-36.8,42.5l-814.2,33.4c-23.9,1-45.9-17.2-49-40.6l-23.3-175.2
							c-3.2-24,14-44,38.3-44.7l826.6-24.5c22.5-0.7,42.4,17.5,44.3,40.6L2270.2,2100.9z"/>
						<path class="st2" d="M2285.5,2283.2c1.9,22.1-14.4,40.9-36.4,42l-805.3,39.7c-23.7,1.2-45.4-16.5-48.4-39.4l-2.3-17.4
							c-3.1-23.1,13.8-42.7,37.6-43.7l810.1-36.3c22.1-1,41.5,16.3,43.4,38.5L2285.5,2283.2z"/>
					</g>
					<g>
						<path class="st2" d="M2106.3,1447.4l-708.6,5.6c-11.9,0.1-22.8-8.8-24.2-19.9l-6.1-47.4c-1.4-11.2,7.1-20.2,19.1-20.2l712.3,0
							c10.5,0,19.7,8.4,20.6,18.9l3.9,44.2C2124.4,1438.8,2116.7,1447.3,2106.3,1447.4z"/>
						<path class="st2" d="M1428.3,1470.4l90.5,228.7c5.6,14.2,20.7,23.8,36.6,23.3l463.7-15.2c14.5-0.5,26.2-10.5,28.5-24.3
							l35.3-218.8L1428.3,1470.4z M1631.6,1683.6c1,9-5.9,16.4-15.4,16.7l-16.6,0.5c-9.6,0.3-18.3-6.7-19.4-15.7l-21.1-177.1
							c-1.1-9.2,5.9-16.7,15.7-16.8l16.8-0.2c9.7-0.1,18.4,7.2,19.5,16.3L1631.6,1683.6z M1723.2,1680.9c1,8.9-5.8,16.3-15.2,16.6
							l-16.3,0.5c-9.5,0.3-18-6.7-19-15.6l-20-175.6c-1-9.1,5.9-16.6,15.5-16.7l16.5-0.2c9.5-0.1,18.1,7.1,19.1,16.2L1723.2,1680.9z
							 M1813.2,1678.2c0.9,8.8-5.8,16.2-15,16.5l-16,0.5c-9.3,0.3-17.6-6.6-18.6-15.5l-19-174.1c-1-9,5.9-16.4,15.3-16.5l16.2-0.2
							c9.4-0.1,17.7,7.1,18.7,16.1L1813.2,1678.2z M1901.7,1675.6c0.9,8.7-5.8,16-14.9,16.3l-15.7,0.5c-9.1,0.3-17.3-6.6-18.2-15.4
							l-18-172.6c-0.9-8.9,5.8-16.3,15.1-16.4l15.9-0.2c9.2-0.1,17.4,7,18.3,15.9L1901.7,1675.6z M1988.8,1673.1
							c0.8,8.7-5.7,15.9-14.7,16.2l-15.5,0.5c-9,0.3-17-6.5-17.9-15.3l-17.1-171.2c-0.9-8.9,5.8-16.2,14.9-16.3l15.7-0.2
							c9.1-0.1,17.1,7,18,15.8L1988.8,1673.1z"/>
						<g>
							<g>
								<path class="st2" d="M1494.3,1341.5c-10,9.1-27,8-37.9-2.5c-11-10.5-11.8-26.4-1.8-35.5c10-9.1,27.1-7.9,38,2.6
									C1503.5,1316.6,1504.3,1332.5,1494.3,1341.5z"/>
								<path class="st2" d="M1701.3,1116.7c-4.1-4.1-11.5-3.7-16.6,0.9l-208.4,189c-5.2,4.7-6,11.9-1.8,16
									c4.2,4.1,11.9,3.5,17.1-1.2l207.8-188.8C1704.6,1127.9,1705.4,1120.8,1701.3,1116.7z"/>
							</g>
							<g>
								<path class="st2" d="M1998.1,1342.6c10.9,8.7,26,7.7,33.8-2.2c7.8-9.9,5.4-25-5.5-33.7c-10.9-8.7-26.1-7.8-33.9,2.1
									C1984.7,1318.8,1987.2,1333.9,1998.1,1342.6z"/>
								<path class="st2" d="M1754.3,1117.9c3.2-3.9,10.6-3.2,16.7,1.7l236.5,189.8c5.7,4.6,7.8,11.4,4.8,15.2
									c-3,3.8-10.1,3.3-15.8-1.3l-236.9-189.5C1753.5,1129,1751.1,1121.9,1754.3,1117.9z"/>
							</g>
						</g>
					</g>
				</g>
			</g>
			<g>
				<linearGradient id="SVGID_22_" gradientUnits="userSpaceOnUse" x1="590.1901" y1="1737.1479" x2="975.9364" y2="1737.1479">
					<stop  offset="0" style="stop-color:#311944"/>
					<stop  offset="1" style="stop-color:#A03976"/>
				</linearGradient>
				<path class="st26" d="M959.3,1934.8c-8.4,0-15.6-6.3-16.5-14.8l-30-273.2l-15.5,7.6c-5.2,2.5-11.3,2.2-16.2-0.8
					c-4.9-3-7.9-8.4-7.9-14.1v-7.9l-11.4,5c-3.4,1.5-7.3,1.8-10.9,0.8l-248.3-65.1c-8.9-2.3-14.2-11.4-11.9-20.3
					c2.3-8.9,11.4-14.2,20.3-11.9l242.7,63.6l29.5-12.8c5.1-2.2,11.1-1.7,15.8,1.3c4.7,3.1,7.5,8.3,7.5,13.9v6.5l12.8-6.3
					c4.9-2.4,10.6-2.3,15.4,0.3c4.8,2.6,7.9,7.4,8.5,12.8l32.6,296.8c1,9.1-5.6,17.4-14.7,18.4
					C960.5,1934.7,959.9,1934.8,959.3,1934.8z"/>
				<g>
					<linearGradient id="SVGID_23_" gradientUnits="userSpaceOnUse" x1="1475.4773" y1="1693.0437" x2="784.1102" y2="1779.4645">
						<stop  offset="0" style="stop-color:#D8DEE8"/>
						<stop  offset="1" style="stop-color:#FFFFFF"/>
					</linearGradient>
					<path class="st27" d="M1442.9,1753.1c0,41.3-169.6,42.7-378.9,42.7c-209.2,0-378.9-1.4-378.9-42.7
						c0-41.3,169.6-74.7,378.9-74.7C1273.3,1678.4,1442.9,1711.9,1442.9,1753.1z"/>
					<linearGradient id="SVGID_24_" gradientUnits="userSpaceOnUse" x1="1479.6825" y1="1726.6875" x2="788.3151" y2="1813.1082">
						<stop  offset="0" style="stop-color:#D8DEE8"/>
						<stop  offset="1" style="stop-color:#FFFFFF"/>
					</linearGradient>
					<path class="st28" d="M685.5,1753.1c0,0-17.6,48.3-17.6,49.1c0,0.7,790.1,0,790.1,0l-14.8-49.1H685.5z"/>
				</g>
				<path class="st11" d="M1457.9,1802.6c0,43-176.8,77.9-395,77.9c-218.1,0-395-34.9-395-77.9c0-43,176.8-77.9,395-77.9
					C1281.1,1724.7,1457.9,1759.5,1457.9,1802.6z"/>
				<linearGradient id="SVGID_25_" gradientUnits="userSpaceOnUse" x1="1090.6368" y1="2035.7101" x2="835.3283" y2="2979.241">
					<stop  offset="0" style="stop-color:#FF9085"/>
					<stop  offset="1" style="stop-color:#FB6FBB"/>
				</linearGradient>
				<path class="st29" d="M1420.1,1802.9c0-36.6-159.9-66.3-357.1-66.3c-197.2,0-357.1,29.7-357.1,66.3h-0.2l72.6,935.8
					c0,46.7,127.5,84.6,284.8,84.6c157.3,0,284.8-37.9,284.8-84.6l72.6-935.8H1420.1z"/>
				<g class="st19">
					<linearGradient id="SVGID_26_" gradientUnits="userSpaceOnUse" x1="1714.2074" y1="1657.8062" x2="696.1992" y2="2656.905">
						<stop  offset="0" style="stop-color:#FF9085"/>
						<stop  offset="1" style="stop-color:#FB6FBB"/>
					</linearGradient>
					<path class="st30" d="M1420.1,1802.9c0-36.6-159.9-66.3-357.1-66.3c-68.5,0-132.4,3.6-186.8,9.8c-8.4,25.6-13,52.8-11.6,81.1
						c7.9,162.7,202.1,217.1,269.2,370.7c40.9,93.7,42.5,377.3-111.9,624.1c13.4,0.6,27.1,0.9,41,0.9c157.3,0,284.8-37.9,284.8-84.6
						l72.6-935.8H1420.1z"/>
				</g>
			</g>
			<g>
				<g>
					<linearGradient id="SVGID_27_" gradientUnits="userSpaceOnUse" x1="709.8077" y1="2277.6589" x2="1012.365" y2="2277.6589">
						<stop  offset="0" style="stop-color:#311944"/>
						<stop  offset="1" style="stop-color:#A03976"/>
					</linearGradient>
					<path class="st31" d="M1005.3,2407.3c-3.6,0-6.6-2.7-7-6.4c-6.2-64.6-27.2-125.9-59.3-172.7c-28.4-41.5-62.2-66.2-90.5-66.2
						c0,0-0.1,0-0.1,0c-102.9,0.2-124.5,236.5-124.7,238.9c-0.3,3.9-3.7,6.7-7.6,6.4c-3.9-0.3-6.7-3.7-6.4-7.6
						c0.9-10.3,22.9-251.5,138.6-251.7c0,0,0.1,0,0.1,0c33.4,0,70.6,26.4,102.1,72.3c33.4,48.8,55.3,112.4,61.7,179.3
						c0.4,3.9-2.5,7.3-6.3,7.7C1005.8,2407.3,1005.6,2407.3,1005.3,2407.3z"/>
					<linearGradient id="SVGID_28_" gradientUnits="userSpaceOnUse" x1="504.6514" y1="2447.5486" x2="675.9182" y2="2734.7498">
						<stop  offset="3.597120e-03" style="stop-color:#E38DDD"/>
						<stop  offset="1" style="stop-color:#9571F6"/>
					</linearGradient>
					<path class="st32" d="M576.6,2893.7l135.5,68.6l82.1-251.9l-135.3-337.7l-38.4,9.4l-58.2,485
						C561,2878,566.7,2888.7,576.6,2893.7z"/>
					<linearGradient id="SVGID_29_" gradientUnits="userSpaceOnUse" x1="531.1315" y1="2431.7576" x2="702.3983" y2="2718.9587">
						<stop  offset="3.597120e-03" style="stop-color:#E38DDD"/>
						<stop  offset="1" style="stop-color:#9571F6"/>
					</linearGradient>
					<path class="st33" d="M794.1,2710.4l-135.3-337.7l-22.6,5.5c-3.1,45.1-1.8,82.2,0.4,109.2c9.1,115,39.2,147,24.6,227.2
						c-12.1,66.7-38.6,75.8-36.3,120.6c2.5,48.9,36.6,89.8,77.1,122l10,5.1L794.1,2710.4z"/>
					<linearGradient id="SVGID_30_" gradientUnits="userSpaceOnUse" x1="802.7964" y1="2563.2458" x2="1284.9779" y2="2934.7632">
						<stop  offset="3.597120e-03" style="stop-color:#E38DDD"/>
						<stop  offset="1" style="stop-color:#9571F6"/>
					</linearGradient>
					<polygon class="st34" points="658.9,2372.6 1164,2372.6 1331.2,2912.4 712,2962.3 					"/>
					<linearGradient id="SVGID_31_" gradientUnits="userSpaceOnUse" x1="795.7719" y1="2286.2402" x2="1075.2368" y2="2286.2402">
						<stop  offset="0" style="stop-color:#311944"/>
						<stop  offset="1" style="stop-color:#A03976"/>
					</linearGradient>
					<path class="st35" d="M815.4,2418.9c-3.2,0-6.1-2.2-6.8-5.4c-1.4-6.1-34.6-150.7,12.2-221.7c13.4-20.3,32.2-32.8,55.7-36.9
						c121-21.3,195.5,238.5,198.6,249.6c1,3.7-1.1,7.6-4.9,8.7c-3.7,1.1-7.6-1.1-8.7-4.9c-0.7-2.6-74-258.7-182.6-239.6
						c-19.9,3.5-35,13.6-46.4,30.8c-43.5,66-10.6,209.3-10.2,210.8c0.9,3.8-1.5,7.6-5.2,8.4C816.4,2418.8,815.9,2418.9,815.4,2418.9
						z"/>
					<g class="st19">
						<linearGradient id="SVGID_32_" gradientUnits="userSpaceOnUse" x1="809.0292" y1="2555.1553" x2="1291.2108" y2="2926.6729">
							<stop  offset="3.597120e-03" style="stop-color:#E38DDD"/>
							<stop  offset="1" style="stop-color:#9571F6"/>
						</linearGradient>
						<path class="st36" d="M1164,2372.6H913.4c-12.4,12.6-21.1,27.1-22,43.3c-3.9,76.4,171.6,101.5,188.5,206.1
							c12.2,75.5-62.9,162.6-130,201.4c-70.6,40.9-118.5,20.2-166.3,65.6c-21,19.9-33.8,44.9-41.4,70.7l588.9-47.5L1164,2372.6z"/>
					</g>
					<linearGradient id="SVGID_33_" gradientUnits="userSpaceOnUse" x1="795.772" y1="2419.9529" x2="835.0474" y2="2419.9529">
						<stop  offset="0" style="stop-color:#311944"/>
						<stop  offset="1" style="stop-color:#A03976"/>
					</linearGradient>
					<circle class="st37" cx="815.4" cy="2420" r="19.6"/>
					<linearGradient id="SVGID_34_" gradientUnits="userSpaceOnUse" x1="1051.8691" y1="2418.1316" x2="1091.1445" y2="2418.1316">
						<stop  offset="0" style="stop-color:#311944"/>
						<stop  offset="1" style="stop-color:#A03976"/>
					</linearGradient>
					<circle class="st38" cx="1071.5" cy="2418.1" r="19.6"/>
				</g>
			</g>
			<g>
				<g>
					
						<linearGradient id="SVGID_35_" gradientUnits="userSpaceOnUse" x1="645.0395" y1="688.0431" x2="1380.7554" y2="688.0431" gradientTransform="matrix(1 0 0 1 -66.2199 0)">
						<stop  offset="0" style="stop-color:#444B8C"/>
						<stop  offset="0.9964" style="stop-color:#26264F"/>
					</linearGradient>
					<path class="st39" d="M1314.5,712.9c0,199-155.6,355.6-354.6,349.5c-207-6.4-381.1-185.2-381.1-399.1
						c0-214,174.1-369.3,381.1-347.7C1158.9,336.2,1314.5,513.8,1314.5,712.9z"/>
					
						<linearGradient id="SVGID_36_" gradientUnits="userSpaceOnUse" x1="1233.8997" y1="301.3388" x2="850.8584" y2="1146.3994" gradientTransform="matrix(1 0 0 1 -66.2199 0)">
						<stop  offset="0" style="stop-color:#AA80F9"/>
						<stop  offset="0.9964" style="stop-color:#6165D7"/>
					</linearGradient>
					<path class="st40" d="M1368.3,695.7c0,199-155.6,355.6-354.6,349.5c-207-6.4-381.1-185.2-381.1-399.1
						c0-214,174.1-369.3,381.1-347.7C1212.6,319.1,1368.3,496.6,1368.3,695.7z"/>
					<path class="st2" d="M1352.7,694.6c0,190.3-148.9,339.7-339,333.6c-197.4-6.4-363.2-177-363.2-380.9
						c0-203.9,165.7-352.2,363.2-331.9C1203.8,334.8,1352.7,504.4,1352.7,694.6z"/>
					<linearGradient id="SVGID_37_" gradientUnits="userSpaceOnUse" x1="668.655" y1="671.029" x2="1336.225" y2="671.029">
						<stop  offset="0" style="stop-color:#AA80F9"/>
						<stop  offset="0.9964" style="stop-color:#6165D7"/>
					</linearGradient>
					<path class="st41" d="M1336.2,693.5c0,167.1-120.7,300.9-281.3,315.9c-13.5,1.3-27.3,1.7-41.3,1.2
						c-187.6-6.3-344.9-168.6-344.9-362.2c0-168.4,118.9-296.9,273.3-315.1c23.1-2.7,47.1-3,71.6-0.5
						C1194.3,351.2,1336.2,512.4,1336.2,693.5z"/>
					
						<linearGradient id="SVGID_38_" gradientUnits="userSpaceOnUse" x1="917.2601" y1="583.0574" x2="1214.8419" y2="1214.7668" gradientTransform="matrix(1 0 0 1 -66.2199 0)">
						<stop  offset="0" style="stop-color:#AA80F9"/>
						<stop  offset="0.9964" style="stop-color:#6165D7"/>
					</linearGradient>
					<path class="st42" d="M1054.9,1009.5c-13.5,1.3-27.3,1.7-41.3,1.2c-187.6-6.3-344.9-168.6-344.9-362.2
						c0-168.4,118.9-296.9,273.3-315.1c52.1,40.7,98.8,92.8,106.9,154.5c13.1,100.6-87.4,146.9-98.5,256.3
						C941.2,834.4,984.5,935,1054.9,1009.5z"/>
				</g>
				<path class="st2" d="M839.3,592.9c0,57.7,67.1,194.8,114.6,284.6c19.8,37.4,71.8,39.9,91.6,4.3c47.8-85.7,116-218.1,116-276.3
					c0-89.8-72.7-165.2-161.9-168.2C910.9,434.3,839.3,503.9,839.3,592.9z M913.4,595.8c0-47.9,38.6-85.3,86.3-83.6
					c47.8,1.7,86.7,42.2,86.7,90.3c0,48.1-38.9,85.5-86.7,83.5C952,684.2,913.4,643.7,913.4,595.8z"/>
			</g>
			<g>
				
					<linearGradient id="SVGID_39_" gradientUnits="userSpaceOnUse" x1="1914.6315" y1="2367.1367" x2="1713.5626" y2="2906.8486" gradientTransform="matrix(0.9982 6.060000e-02 -6.060000e-02 0.9982 -85.0607 -57.703)">
					<stop  offset="0" style="stop-color:#FFC444"/>
					<stop  offset="0.9964" style="stop-color:#F36F56"/>
				</linearGradient>
				<path class="st43" d="M1268.7,2674.5c-68.7-27.8-93.9-48.4-103.1-76c-26.5-79.2,86.4-195.4,195.3-247.8
					c100.1-48.2,191.8-40,320.2-28.4c124.2,11.1,213.2,19.1,288.8,87.4c56.7,51.3,117.3,146.8,87.4,212.3
					c-16.9,37.1-58.2,54.3-153.1,74.6C1531.7,2776.1,1316.1,2693.7,1268.7,2674.5z"/>
				
					<linearGradient id="SVGID_40_" gradientUnits="userSpaceOnUse" x1="1875.2134" y1="2794.8618" x2="1846.6509" y2="2498.5271" gradientTransform="matrix(0.9982 6.060000e-02 -6.060000e-02 0.9982 -85.0607 -57.703)">
					<stop  offset="0" style="stop-color:#FFC444"/>
					<stop  offset="0.9964" style="stop-color:#F36F56"/>
				</linearGradient>
				<path class="st44" d="M1429.1,2532.4c-183.8,4.1-228.2,57.5-227.6,108.7c15.7,10.5,37.3,21.2,67.2,33.3
					c47.5,19.2,263.1,101.6,635.4,22.1c45.1-9.6,78.1-18.6,102.1-29.3C2086.1,2476,1742.5,2525.4,1429.1,2532.4z"/>
				
					<linearGradient id="SVGID_41_" gradientUnits="userSpaceOnUse" x1="1629.5453" y1="2754.4895" x2="1636.6255" y2="2269.5056" gradientTransform="matrix(0.9982 6.060000e-02 -6.060000e-02 0.9982 -85.0607 -57.703)">
					<stop  offset="0" style="stop-color:#FFC444"/>
					<stop  offset="0.9964" style="stop-color:#F36F56"/>
				</linearGradient>
				<path class="st45" d="M1414.9,2353.8c-18.7,3.7-45,15.1-43.5,24.8c1.4,8.9,26.5,17.5,45.4,9.7c16.8-6.9,28.2-26.3,23.7-33.4
					C1437,2349.4,1423.5,2352.1,1414.9,2353.8z"/>
				
					<linearGradient id="SVGID_42_" gradientUnits="userSpaceOnUse" x1="1716.4033" y1="2758.9216" x2="1723.5166" y2="2271.676" gradientTransform="matrix(0.9982 6.060000e-02 -6.060000e-02 0.9982 -85.0607 -57.703)">
					<stop  offset="0" style="stop-color:#FFC444"/>
					<stop  offset="0.9964" style="stop-color:#F36F56"/>
				</linearGradient>
				<path class="st46" d="M1501.1,2335.7c-14.2,0.9-33.3,8.5-33.2,18.2c0.1,8,13.5,16.7,25.5,16.4c18.1-0.5,32.2-21.7,28.3-29.8
					C1518.7,2334.6,1505.8,2335.4,1501.1,2335.7z"/>
				
					<linearGradient id="SVGID_43_" gradientUnits="userSpaceOnUse" x1="1820.8442" y1="2760.481" x2="1827.9337" y2="2274.8635" gradientTransform="matrix(0.9982 6.060000e-02 -6.060000e-02 0.9982 -85.0607 -57.703)">
					<stop  offset="0" style="stop-color:#FFC444"/>
					<stop  offset="0.9964" style="stop-color:#F36F56"/>
				</linearGradient>
				<path class="st47" d="M1596.2,2326.4c-8.3,0.1-37,0.3-38.1,7.4c-1,6.5,21.1,19.3,43.5,19.5c21.4,0.2,43-11,42-17.6
					C1642.5,2327.9,1610.5,2326.2,1596.2,2326.4z"/>
				
					<linearGradient id="SVGID_44_" gradientUnits="userSpaceOnUse" x1="1892.8392" y1="2765.5139" x2="1899.972" y2="2276.9329" gradientTransform="matrix(0.9982 6.060000e-02 -6.060000e-02 0.9982 -85.0607 -57.703)">
					<stop  offset="0" style="stop-color:#FFC444"/>
					<stop  offset="0.9964" style="stop-color:#F36F56"/>
				</linearGradient>
				<path class="st48" d="M1674.6,2340.5c-9.5-1.8-17.4,8.5-15.9,12.3c2,5.4,24.5,5.1,26.6-1
					C1686.5,2348.2,1681.1,2341.7,1674.6,2340.5z"/>
				
					<linearGradient id="SVGID_45_" gradientUnits="userSpaceOnUse" x1="1965.6544" y1="2774.3181" x2="1972.8832" y2="2279.1572" gradientTransform="matrix(0.9982 6.060000e-02 -6.060000e-02 0.9982 -85.0607 -57.703)">
					<stop  offset="0" style="stop-color:#FFC444"/>
					<stop  offset="0.9964" style="stop-color:#F36F56"/>
				</linearGradient>
				<path class="st49" d="M1760.8,2342.4c-17.5-14-44.2-4.3-45.8,4.4c-2.4,12.8,45.9,39.6,56.5,29.9
					C1777.6,2371.2,1773,2352.2,1760.8,2342.4z"/>
				
					<linearGradient id="SVGID_46_" gradientUnits="userSpaceOnUse" x1="2039.5431" y1="2774.4771" x2="2046.7407" y2="2281.4541" gradientTransform="matrix(0.9982 6.060000e-02 -6.060000e-02 0.9982 -85.0607 -57.703)">
					<stop  offset="0" style="stop-color:#FFC444"/>
					<stop  offset="0.9964" style="stop-color:#F36F56"/>
				</linearGradient>
				<path class="st50" d="M1815.9,2355.5c-5.4,0.2-10.9,6.6-10.3,12c1,9.1,19.6,14.1,23.4,9.8
					C1832.7,2372.9,1825,2355.2,1815.9,2355.5z"/>
				
					<linearGradient id="SVGID_47_" gradientUnits="userSpaceOnUse" x1="2085.2551" y1="2776.7251" x2="2092.4641" y2="2282.9214" gradientTransform="matrix(0.9982 6.060000e-02 -6.060000e-02 0.9982 -85.0607 -57.703)">
					<stop  offset="0" style="stop-color:#FFC444"/>
					<stop  offset="0.9964" style="stop-color:#F36F56"/>
				</linearGradient>
				<path class="st51" d="M1869.1,2359.6c-8.8-4.5-19,1.2-19.5,5.7c-0.8,7,21.1,18.6,26.3,14
					C1879.3,2376.3,1878.1,2364.3,1869.1,2359.6z"/>
				
					<linearGradient id="SVGID_48_" gradientUnits="userSpaceOnUse" x1="1563.1986" y1="2756.5569" x2="1570.3495" y2="2266.7358" gradientTransform="matrix(0.9982 6.060000e-02 -6.060000e-02 0.9982 -85.0607 -57.703)">
					<stop  offset="0" style="stop-color:#FFC444"/>
					<stop  offset="0.9964" style="stop-color:#F36F56"/>
				</linearGradient>
				<path class="st52" d="M1328.3,2378.3c-0.5-5.7,15-13.7,19.9-9.7c3.3,2.7,3.2,11.9-2.6,15.8
					C1338.7,2389,1328.7,2382.6,1328.3,2378.3z"/>
				
					<linearGradient id="SVGID_49_" gradientUnits="userSpaceOnUse" x1="1781.8427" y1="2765.656" x2="1789.0331" y2="2273.1262" gradientTransform="matrix(0.9982 6.060000e-02 -6.060000e-02 0.9982 -85.0607 -57.703)">
					<stop  offset="0" style="stop-color:#FFC444"/>
					<stop  offset="0.9964" style="stop-color:#F36F56"/>
				</linearGradient>
				<path class="st53" d="M1552.6,2370.9c-5.6,1.6-9.6,11.1-6.6,17.1c4.3,8.8,22.1,7.4,24.7,1.9
					C1573.5,2384,1561.1,2368.5,1552.6,2370.9z"/>
				
					<linearGradient id="SVGID_50_" gradientUnits="userSpaceOnUse" x1="1835.4601" y1="2429.3999" x2="1864.6915" y2="2663.2522" gradientTransform="matrix(0.9982 6.060000e-02 -6.060000e-02 0.9982 -85.0607 -57.703)">
					<stop  offset="0" style="stop-color:#AB316D"/>
					<stop  offset="1" style="stop-color:#792D3D"/>
				</linearGradient>
				<path class="st54" d="M1289.4,2729.1c-26.4-7.4-66.7-19.8-71.2-44.2c-6.8-36.8,70.3-85.7,137-108.5c66.9-22.9,89.7-8,256.6-15.8
					c50.5-2.4,81-5.3,161.9-8.1c78.5-2.8,131.4-2.9,183.3,27.7c16.5,9.7,45.9,27.6,47.8,53.7c2.3,30.9-35.6,56.1-53.6,67.8
					C1804.8,2796.4,1504,2788.9,1289.4,2729.1z"/>
				
					<linearGradient id="SVGID_51_" gradientUnits="userSpaceOnUse" x1="1850.4614" y1="2497.564" x2="1872.7045" y2="2675.5085" gradientTransform="matrix(0.9982 6.060000e-02 -6.060000e-02 0.9982 -85.0607 -57.703)">
					<stop  offset="0" style="stop-color:#AB316D"/>
					<stop  offset="1" style="stop-color:#792D3D"/>
				</linearGradient>
				<path class="st55" d="M1307.3,2730.2c-25.8-5.8-65.2-15.4-70-32.8c-7.2-26.3,67.1-59.5,131.6-74.4c64.8-14.9,87.2-3.9,249.5-6.1
					c49.1-0.7,78.8-2.1,157.5-2.6c76.4-0.4,127.9,0.5,178.9,23.3c16.2,7.2,45.2,20.5,47.4,39.1c2.7,22-33.7,39.2-51.1,47.1
					C1810.1,2788.3,1517.1,2777,1307.3,2730.2z"/>
				
					<linearGradient id="SVGID_52_" gradientUnits="userSpaceOnUse" x1="1163.2875" y1="2575.063" x2="3298.5073" y2="2716.1052" gradientTransform="matrix(0.9982 6.060000e-02 -6.060000e-02 0.9982 -85.0607 -57.703)">
					<stop  offset="0" style="stop-color:#6BFFD4"/>
					<stop  offset="1" style="stop-color:#25767A"/>
				</linearGradient>
				<path class="st56" d="M1591.2,2712.6c-0.8-16.8,37-32,51.1-36.6c42.2-13.6,55.6,9.7,108-2.5c19.9-4.6,33.6-11.6,59.7-10.6
					c17.2,0.6,23,4.1,35.6,5.9c44.5,6.3,62.2-25,102.3-29.7c49.3-5.8,105.8,31.8,104.8,57.4c-0.9,23.8-51.5,39-82.8,48.2
					C1796.1,2795.4,1592.9,2751.1,1591.2,2712.6z"/>
				
					<linearGradient id="SVGID_53_" gradientUnits="userSpaceOnUse" x1="1834.8285" y1="2600.6804" x2="1900.4861" y2="3052.9905" gradientTransform="matrix(0.9982 6.060000e-02 -6.060000e-02 0.9982 -85.0607 -57.703)">
					<stop  offset="0" style="stop-color:#FFC444"/>
					<stop  offset="0.9964" style="stop-color:#F36F56"/>
				</linearGradient>
				<path class="st57" d="M1202.4,2917.1c-21.1-14.9-31-35.8-31-35.8c-12.3-25.8-11.1-57.1,0.2-79.4c18.5-36.6,63.1-47.4,87.8-53.1
					c184-41.9,291.1-49,291.1-49c153.5-10.1,209.9-12.9,292.2-8.8c126.8,6.4,168.9,22.2,188.2,54.7c17,28.6,17.1,71.7-1.3,102.3
					c-46,76.6-172.7,16-410.1,45.5C1487.8,2910,1264.6,2961.3,1202.4,2917.1z"/>
				
					<linearGradient id="SVGID_54_" gradientUnits="userSpaceOnUse" x1="2520.9756" y1="2443.0127" x2="233.7787" y2="3040.3562" gradientTransform="matrix(0.9982 6.060000e-02 -6.060000e-02 0.9982 -85.0607 -57.703)">
					<stop  offset="0" style="stop-color:#6BFFD4"/>
					<stop  offset="1" style="stop-color:#25767A"/>
				</linearGradient>
				<path class="st58" d="M1261.8,2689.5c-22.4,9.9-26.8,16.3-44.8,26.2c-37.1,20.4-51.6,11.9-64.6,29.5
					c-8.6,11.6-13.3,30.1-5.7,41.2c10.4,15.3,40.5,11,62.5,7.6c59.6-9.2,68.5-30.4,127.2-46.1c49.1-13.2,95.9-12.6,101.2-12.5
					c32.7,0.6,42.3,2.3,54.7,2.1c0,0,9.4-0.4,18.2-1.4c44-4.7,118.9-38.9,115.5-49.4c-2.9-8.9-54.6,22.1-110.8-0.6
					c-14.3-5.8-38.8-18-70.9-21.4c-44.1-4.7-46.9,19.1-96.5,14.8c-17.3-1.5-33-5.8-56.4-0.5
					C1279.4,2681.8,1269.8,2686,1261.8,2689.5z"/>
				<g class="st19">
					
						<linearGradient id="SVGID_55_" gradientUnits="userSpaceOnUse" x1="1834.8624" y1="2601.8252" x2="1900.241" y2="3052.2129" gradientTransform="matrix(0.9982 6.060000e-02 -6.060000e-02 0.9982 -85.0607 -57.703)">
						<stop  offset="0" style="stop-color:#FFC444"/>
						<stop  offset="0.9964" style="stop-color:#F36F56"/>
					</linearGradient>
					<path class="st59" d="M1964.8,2807c-39.3-2.8-66.8-18.5-79.8-25.1c-114.9-58.9-311.7-35.1-439.2,15
						c-112,44-148.2,99.5-225.1,82.4c-21.9-4.9-41-14.3-57.4-25.7c1.2,9.5,3.8,18.9,8,27.7c0,0,10,20.8,31,35.8
						c62.2,44.1,285.5-7.1,417-23.5c237.4-29.5,364.1,31,410.1-45.5c9.4-15.7,14-34.7,13.9-53.4
						C2020.5,2803.4,1993.9,2809.1,1964.8,2807z"/>
				</g>
			</g>
		</g>
		<g>
			<path class="st60" d="M1040.3,3502.1c-3,3-7.3,5.3-12.9,6.9c-5.6,1.6-12.4,2.4-20.3,2.4c-7.9,0-15.3-1.2-22.3-3.5
				s-12.8-8-17.2-16.9l-31.6-64.5c-3.2-6.6-6.1-12.8-8.6-18.7c-2.6-5.9-5.3-12.6-8.3-20.3l-1.9,0.3c0.8,11.5,1.3,23.2,1.4,35.1
				c0.1,11.9,0.2,23.6,0.2,35.1v49.5c-2.3,0.6-5.9,1.3-10.7,1.9s-9.5,1-14.2,1c-4.7,0-8.8-0.3-12.5-1c-3.6-0.6-6.6-1.9-8.9-3.8
				c-2.3-1.9-4.2-4.5-5.4-7.8c-1.3-3.3-1.9-7.6-1.9-12.9v-159.6c3-4.3,7.6-7.4,13.7-9.6c6.2-2.1,12.8-3.2,19.8-3.2
				c7.9,0,15.4,1.2,22.5,3.7c7.1,2.4,12.8,8,17.1,16.8l31.9,64.5c3.2,6.6,6.1,12.8,8.6,18.7c2.6,5.9,5.3,12.6,8.3,20.3l1.6-0.3
				c-0.9-11.5-1.4-23-1.6-34.5c-0.2-11.5-0.3-23-0.3-34.5v-51.7c2.3-0.6,5.9-1.3,10.7-1.9s9.5-1,14.2-1c9.4,0,16.5,1.7,21.4,4.9
				c4.9,3.3,7.3,10.2,7.3,20.6V3502.1z"/>
			<path class="st60" d="M1238.3,3431.2c0,13.2-2,25-6.1,35.3c-4,10.3-9.7,19-17.1,26c-7.3,7-16.1,12.3-26.3,16s-21.6,5.4-34.2,5.4
				c-12.6,0-23.9-1.9-34.2-5.7s-19-9.3-26.3-16.4c-7.3-7.1-13-15.8-17.1-26c-4-10.2-6.1-21.7-6.1-34.5c0-12.6,2-23.9,6.1-34.2
				c4-10.2,9.7-18.9,17.1-26c7.3-7.1,16.1-12.6,26.3-16.4s21.6-5.7,34.2-5.7c12.6,0,23.9,2,34.2,5.9c10.2,3.9,19,9.5,26.3,16.6
				c7.3,7.1,13,15.8,17.1,26C1236.2,3407.6,1238.3,3418.9,1238.3,3431.2z M1126.5,3431.2c0,13,2.5,22.9,7.5,29.9
				c5,6.9,12,10.4,20.9,10.4c8.9,0,15.8-3.5,20.6-10.5c4.8-7,7.2-16.9,7.2-29.7c0-12.8-2.4-22.6-7.3-29.5
				c-4.9-6.9-11.8-10.4-20.8-10.4c-8.9,0-15.9,3.5-20.8,10.4C1129,3408.6,1126.5,3418.4,1126.5,3431.2z"/>
			<path class="st60" d="M1319,3455.5c0,5.5,1.8,9.5,5.3,11.8c3.5,2.3,8.5,3.5,14.8,3.5c3.2,0,6.5-0.3,9.9-0.8
				c3.4-0.5,6.4-1.2,8.9-2.1c1.9,2.3,3.6,4.9,4.9,7.8c1.4,2.9,2.1,6.3,2.1,10.4c0,8.1-3,14.7-9.1,19.8s-16.8,7.7-32.1,7.7
				c-18.7,0-33.2-4.3-43.3-12.8c-10.1-8.5-15.2-22.3-15.2-41.5v-136.7c2.3-0.6,5.7-1.3,10.1-2.1c4.4-0.7,9-1.1,13.9-1.1
				c9.4,0,16.7,1.7,21.9,4.9c5.2,3.3,7.8,10.3,7.8,20.9v20.4h41.8c1.3,2.3,2.5,5.3,3.7,8.8c1.2,3.5,1.8,7.4,1.8,11.7
				c0,7.5-1.7,12.8-4.9,16.1c-3.3,3.3-7.7,4.9-13.3,4.9H1319V3455.5z"/>
			<path class="st60" d="M1545.7,3508.5c-2.1,0.6-5.5,1.3-10.1,1.9c-4.6,0.6-9.3,1-14.2,1c-4.7,0-8.9-0.3-12.6-1
				c-3.7-0.6-6.9-1.9-9.4-3.8c-2.6-1.9-4.5-4.5-5.9-7.8c-1.4-3.3-2.1-7.6-2.1-12.9v-70.9c0-8.7-2.2-14.8-6.5-18.4
				c-4.4-3.5-9.7-5.3-16.1-5.3c-4.3,0-8.3,0.5-12.1,1.6c-3.8,1.1-6.9,2.3-9.3,3.8v111.7c-2.1,0.6-5.5,1.3-10.1,1.9
				c-4.6,0.6-9.3,1-14.2,1c-4.7,0-8.9-0.3-12.6-1c-3.7-0.6-6.9-1.9-9.4-3.8c-2.6-1.9-4.5-4.5-5.9-7.8c-1.4-3.3-2.1-7.6-2.1-12.9
				v-185.2c2.3-0.4,5.8-1,10.4-1.8c4.6-0.7,9.2-1.1,13.9-1.1c4.7,0,8.9,0.3,12.6,1c3.7,0.6,6.9,1.9,9.4,3.8c2.6,1.9,4.5,4.5,5.9,7.8
				c1.4,3.3,2.1,7.6,2.1,12.9v31.3c2.8-1.1,7-2.3,12.6-3.7c5.6-1.4,11.9-2.1,18.7-2.1c21.1,0,37.5,5.3,49.3,15.8
				c11.8,10.5,17.7,26.2,17.7,47.1V3508.5z"/>
			<path class="st60" d="M1578,3310.5c0-8.1,2.7-14.9,8.1-20.4c5.4-5.5,12.6-8.3,21.6-8.3c8.9,0,16.1,2.8,21.6,8.3
				c5.4,5.5,8.1,12.3,8.1,20.4c0,8.1-2.7,14.9-8.1,20.4c-5.4,5.5-12.6,8.3-21.6,8.3c-8.9,0-16.1-2.8-21.6-8.3
				C1580.7,3325.4,1578,3318.6,1578,3310.5z M1634.8,3508.5c-2.3,0.4-5.8,1-10.4,1.8c-4.6,0.7-9.2,1.1-13.9,1.1
				c-4.7,0-8.9-0.3-12.6-1c-3.7-0.6-6.9-1.9-9.4-3.8c-2.6-1.9-4.5-4.5-5.9-7.8c-1.4-3.3-2.1-7.6-2.1-12.9v-129.9
				c2.3-0.4,5.8-1,10.4-1.8c4.6-0.7,9.2-1.1,13.9-1.1c4.7,0,8.9,0.3,12.6,1c3.7,0.6,6.9,1.9,9.4,3.8c2.6,1.9,4.5,4.5,5.9,7.8
				c1.4,3.3,2.1,7.6,2.1,12.9V3508.5z"/>
			<path class="st60" d="M1767.6,3410.4c0-6.6-1.9-11.4-5.6-14.5c-3.7-3.1-8.8-4.6-15.2-4.6c-4.3,0-8.5,0.5-12.6,1.6
				c-4.2,1.1-7.7,2.7-10.7,4.8v110.8c-2.1,0.6-5.5,1.3-10.1,1.9c-4.6,0.6-9.3,1-14.2,1c-4.7,0-8.9-0.3-12.6-1
				c-3.7-0.6-6.9-1.9-9.4-3.8c-2.6-1.9-4.5-4.5-5.9-7.8c-1.4-3.3-2.1-7.6-2.1-12.9V3390c0-5.7,1.2-10.4,3.7-14
				c2.4-3.6,5.8-6.9,10.1-9.9c7.2-5.1,16.3-9.3,27.3-12.5c11-3.2,23.1-4.8,36.6-4.8c24.1,0,42.6,5.3,55.6,15.8
				c13,10.5,19.5,25.2,19.5,43.9v99.9c-2.1,0.6-5.5,1.3-10.1,1.9c-4.6,0.6-9.3,1-14.2,1c-4.7,0-8.9-0.3-12.6-1
				c-3.7-0.6-6.9-1.9-9.4-3.8c-2.6-1.9-4.5-4.5-5.9-7.8c-1.4-3.3-2.1-7.6-2.1-12.9V3410.4z"/>
			<path class="st60" d="M1931.1,3348.8c12.1,0,23.1,1.5,33,4.6c9.9,3.1,18.2,7.1,25.1,12c4.3,3,7.6,6.3,10.1,9.9
				c2.4,3.6,3.7,8.3,3.7,14v111.7c0,11.3-2.1,21-6.4,29.2c-4.3,8.2-10.1,15-17.4,20.4c-7.3,5.4-16,9.4-25.9,12
				c-9.9,2.6-20.5,3.8-31.8,3.8c-19.4,0-34.6-2.6-45.7-7.8c-11.1-5.2-16.6-13.7-16.6-25.4c0-4.9,1-9.2,3-12.9c2-3.7,4.3-6.5,6.9-8.5
				c6.2,3.4,13.1,6.3,20.9,8.6c7.8,2.3,15.8,3.5,24.1,3.5c11.5,0,20.6-1.9,27.5-5.7c6.8-3.8,10.2-10,10.2-18.5v-5.1
				c-8.7,3.8-19.4,5.7-31.9,5.7c-9.6,0-18.7-1.4-27.3-4.3s-16.2-7.3-22.7-13.4c-6.5-6.1-11.7-13.9-15.6-23.5
				c-3.9-9.6-5.9-21-5.9-34.2c0-13,2.1-24.3,6.2-33.8s9.9-17.5,17.2-23.8c7.3-6.3,16.1-11,26.2-14
				C1908.2,3350.4,1919.2,3348.8,1931.1,3348.8z M1950.9,3395.1c-1.5-0.8-3.7-1.7-6.5-2.6c-2.9-0.8-6.4-1.3-10.7-1.3
				c-10.4,0-18.3,2.9-23.5,8.8c-5.2,5.9-7.8,14.2-7.8,25.1c0,12.3,2.6,21.2,7.8,26.7c5.2,5.4,11.9,8.1,20,8.1c8.7,0,15.6-2,20.8-6.1
				V3395.1z"/>
			<path class="st60" d="M2253.6,3508.5c-2.1,0.6-5.5,1.3-10.1,1.9c-4.6,0.6-9.3,1-14.2,1c-4.7,0-8.9-0.3-12.6-1
				c-3.7-0.6-6.9-1.9-9.4-3.8c-2.6-1.9-4.5-4.5-5.9-7.8c-1.4-3.3-2.1-7.6-2.1-12.9v-70.9c0-8.7-2.2-14.8-6.5-18.4
				c-4.4-3.5-9.7-5.3-16.1-5.3c-4.3,0-8.3,0.5-12.1,1.6c-3.8,1.1-6.9,2.3-9.3,3.8v111.7c-2.1,0.6-5.5,1.3-10.1,1.9
				c-4.6,0.6-9.3,1-14.2,1c-4.7,0-8.9-0.3-12.6-1c-3.7-0.6-6.9-1.9-9.4-3.8c-2.6-1.9-4.5-4.5-5.9-7.8c-1.4-3.3-2.1-7.6-2.1-12.9
				v-185.2c2.3-0.4,5.8-1,10.4-1.8c4.6-0.7,9.2-1.1,13.9-1.1c4.7,0,8.9,0.3,12.6,1c3.7,0.6,6.9,1.9,9.4,3.8c2.6,1.9,4.5,4.5,5.9,7.8
				c1.4,3.3,2.1,7.6,2.1,12.9v31.3c2.8-1.1,7-2.3,12.6-3.7c5.6-1.4,11.9-2.1,18.7-2.1c21.1,0,37.5,5.3,49.3,15.8
				s17.7,26.2,17.7,47.1V3508.5z"/>
			<path class="st60" d="M2369.1,3513.9c-12.6,0-24.2-1.8-35-5.3c-10.8-3.5-20.1-8.8-28.1-15.8c-8-7-14.3-15.9-18.8-26.5
				c-4.6-10.6-6.9-23.1-6.9-37.4c0-14,2.3-26.1,6.9-36.2c4.6-10.1,10.6-18.4,18-24.9c7.4-6.5,16-11.3,25.5-14.4
				c9.6-3.1,19.4-4.6,29.4-4.6c11.3,0,21.6,1.7,30.8,5.1c9.3,3.4,17.2,8.1,23.9,14c6.7,6,11.9,13.1,15.6,21.4
				c3.7,8.3,5.6,17.4,5.6,27.1c0,7.2-2,12.8-6.1,16.6c-4,3.8-9.7,6.3-16.9,7.3l-78.9,11.8c2.3,7,7.1,12.3,14.4,15.8
				c7.2,3.5,15.5,5.3,24.9,5.3c8.7,0,17-1.1,24.7-3.4c7.8-2.2,14.1-4.8,19-7.8c3.4,2.1,6.3,5.1,8.6,8.9c2.3,3.8,3.5,7.9,3.5,12.1
				c0,9.6-4.5,16.7-13.4,21.4c-6.8,3.6-14.5,6.1-23,7.3C2384.6,3513.3,2376.6,3513.9,2369.1,3513.9z M2360.2,3388.4
				c-5.1,0-9.5,0.9-13.3,2.6c-3.7,1.7-6.8,3.9-9.1,6.5c-2.3,2.7-4.1,5.6-5.3,8.9c-1.2,3.3-1.9,6.7-2.1,10.1l54.6-8.9
				c-0.6-4.3-3-8.5-7-12.8C2374,3390.5,2368.1,3388.4,2360.2,3388.4z"/>
			<path class="st60" d="M2516.6,3508.5c-2.1,0.6-5.5,1.3-10.1,1.9c-4.6,0.6-9.3,1-14.2,1c-4.7,0-8.9-0.3-12.6-1
				c-3.7-0.6-6.9-1.9-9.4-3.8c-2.6-1.9-4.5-4.5-5.9-7.8c-1.4-3.3-2.1-7.6-2.1-12.9V3390c0-4.9,0.9-9.1,2.7-12.6
				c1.8-3.5,4.4-6.6,7.8-9.4c3.4-2.8,7.6-5.3,12.6-7.5c5-2.2,10.4-4.2,16.1-5.9c5.7-1.7,11.7-3,17.9-4c6.2-1,12.3-1.4,18.5-1.4
				c10.2,0,18.3,2,24.3,5.9c6,3.9,8.9,10.4,8.9,19.3c0,3-0.4,5.9-1.3,8.8c-0.9,2.9-1.9,5.5-3.2,7.8c-4.5,0-9,0.2-13.7,0.6
				c-4.7,0.4-9.3,1.1-13.7,1.9c-4.5,0.9-8.7,1.8-12.6,2.7c-3.9,1-7.3,2.1-10.1,3.4V3508.5z"/>
			<path class="st60" d="M2669.6,3513.9c-12.6,0-24.2-1.8-35-5.3c-10.8-3.5-20.1-8.8-28.1-15.8c-8-7-14.3-15.9-18.8-26.5
				c-4.6-10.6-6.9-23.1-6.9-37.4c0-14,2.3-26.1,6.9-36.2c4.6-10.1,10.6-18.4,18-24.9c7.4-6.5,16-11.3,25.5-14.4
				c9.6-3.1,19.4-4.6,29.4-4.6c11.3,0,21.6,1.7,30.8,5.1c9.3,3.4,17.2,8.1,23.9,14c6.7,6,11.9,13.1,15.6,21.4
				c3.7,8.3,5.6,17.4,5.6,27.1c0,7.2-2,12.8-6.1,16.6c-4,3.8-9.7,6.3-16.9,7.3l-78.9,11.8c2.3,7,7.1,12.3,14.4,15.8
				c7.2,3.5,15.5,5.3,24.9,5.3c8.7,0,17-1.1,24.7-3.4c7.8-2.2,14.1-4.8,19-7.8c3.4,2.1,6.3,5.1,8.6,8.9c2.3,3.8,3.5,7.9,3.5,12.1
				c0,9.6-4.5,16.7-13.4,21.4c-6.8,3.6-14.5,6.1-23,7.3C2685,3513.3,2677,3513.9,2669.6,3513.9z M2660.6,3388.4
				c-5.1,0-9.5,0.9-13.3,2.6c-3.7,1.7-6.8,3.9-9.1,6.5c-2.3,2.7-4.1,5.6-5.3,8.9c-1.2,3.3-1.9,6.7-2.1,10.1l54.6-8.9
				c-0.6-4.3-3-8.5-7-12.8C2674.5,3390.5,2668.5,3388.4,2660.6,3388.4z"/>
			<path class="st60" d="M2763.1,3484.5c0-8.7,2.7-15.9,8.1-21.6c5.4-5.6,12.9-8.5,22.5-8.5s17.1,2.8,22.5,8.5
				c5.4,5.6,8.1,12.8,8.1,21.6c0,8.7-2.7,15.9-8.1,21.6c-5.4,5.6-12.9,8.5-22.5,8.5s-17.1-2.8-22.5-8.5
				C2765.8,3500.4,2763.1,3493.2,2763.1,3484.5z M2821.9,3323.6c0,4.9-0.1,12-0.3,21.2c-0.2,9.3-0.6,19.3-1.3,30
				c-0.6,10.8-1.5,21.5-2.6,32.2c-1.1,10.8-2.3,20.1-3.8,27.9c-0.9,0.6-2.1,1.3-3.8,1.9c-1.7,0.6-3.5,1.2-5.4,1.6
				c-1.9,0.4-3.8,0.7-5.7,1c-1.9,0.2-3.6,0.3-5.1,0.3c-6.2,0-11.3-1-15.5-2.9s-6.8-5.6-7.8-11.2c-1.1-4.9-2-12.3-2.7-22.3
				c-0.7-10-1.4-20.9-2.1-32.6c-0.6-11.7-1.1-23.3-1.4-34.8c-0.3-11.5-0.5-21.3-0.5-29.4c4.3-2.3,9.1-4.2,14.5-5.6
				c5.4-1.4,10.8-2.1,16.1-2.1c8.7,0,15.5,2,20.3,6.1C2819.5,3309.1,2821.9,3315.3,2821.9,3323.6z"/>
		</g>
	</g>
	<g>
	</g>
	<g>
	</g>
	<g>
	</g>
	<g>
	</g>
	<g>
	</g>
	<g>
	</g>
	<g>
	</g>
	<g>
	</g>
	<g>
	</g>
	<g>
	</g>
	<g>
	</g>
	<g>
	</g>
	<g>
	</g>
	<g>
	</g>
	<g>
	</g>
</g>
</svg>
